<svg height="512" viewBox="0 0 512 512" width="512" xmlns="http://www.w3.org/2000/svg"><path d="m464 488h-48l-56-296h48z" fill="#878787"/><path d="m208 488h-48l-56-296h48z" fill="#878787"/><path d="m328 448h-224l8-32h224z" fill="#a8a8a8"/><path d="m360 488h-48l48-296h48z" fill="#b9b9b9"/><path d="m104 488h-48l48-296h48z" fill="#b9b9b9"/><path d="m24 224h464v64h-464z" fill="#d9d9d9"/><path d="m24 320h464v64h-464z" fill="#d9d9d9"/><g fill="#f85542"><path d="m278.4 288 41.6-64h-48l-41.6 64z"/><path d="m470.4 288 17.6-27.077v-36.923h-24l-41.6 64z"/><path d="m374.4 288 41.6-64h-48l-41.6 64z"/><path d="m24 224v12.308l8-12.308z"/><path d="m80 224-41.6 64h48l41.6-64z"/><path d="m182.4 288 41.6-64h-48l-41.6 64z"/><path d="m305.6 320-41.6 64h48l41.6-64z"/><path d="m209.6 320-41.6 64h48l41.6-64z"/><path d="m401.6 320-41.6 64h48l41.6-64z"/><path d="m456 384h32v-49.231z"/><path d="m24 320v64l41.6-64z"/><path d="m113.6 320-41.6 64h48l41.6-64z"/></g><path d="m96 160h64v32h-64z" fill="#88ced9"/><path d="m144 160h16v32h-16z" fill="#a7d6db"/><path d="m128 104a24 24 0 0 1 24 24v32a0 0 0 0 1 0 0h-48a0 0 0 0 1 0 0v-32a24 24 0 0 1 24-24z" fill="#ff9201"/><path d="m128 80a8 8 0 0 1 -8-8v-24a8 8 0 0 1 16 0v24a8 8 0 0 1 -8 8z" fill="#ffbc57"/><path d="m88.4 96.4a7.975 7.975 0 0 1 -5.656-2.343l-16.971-16.971a8 8 0 1 1 11.313-11.313l16.973 16.973a8 8 0 0 1 -5.659 13.654z" fill="#ffbc57"/><path d="m72 136h-24a8 8 0 0 1 0-16h24a8 8 0 0 1 0 16z" fill="#ffbc57"/><path d="m208 136h-24a8 8 0 0 1 0-16h24a8 8 0 0 1 0 16z" fill="#ffbc57"/><path d="m167.6 96.4a8 8 0 0 1 -5.657-13.656l16.973-16.973a8 8 0 0 1 11.313 11.313l-16.975 16.975a7.975 7.975 0 0 1 -5.654 2.341z" fill="#ffbc57"/><path d="m352 160h64v32h-64z" fill="#88ced9"/><path d="m400 160h16v32h-16z" fill="#a7d6db"/><path d="m384 104a24 24 0 0 1 24 24v32a0 0 0 0 1 0 0h-48a0 0 0 0 1 0 0v-32a24 24 0 0 1 24-24z" fill="#ff9201"/><path d="m124 104.4a23.953 23.953 0 0 0 -20 23.6v32h40v-32a23.953 23.953 0 0 0 -20-23.6z" fill="#e78404"/><path d="m380 104.4a23.953 23.953 0 0 0 -20 23.6v32h40v-32a23.953 23.953 0 0 0 -20-23.6z" fill="#e78404"/><path d="m384 80a8 8 0 0 1 -8-8v-24a8 8 0 0 1 16 0v24a8 8 0 0 1 -8 8z" fill="#ffbc57"/><path d="m344.4 96.4a7.975 7.975 0 0 1 -5.656-2.343l-16.971-16.971a8 8 0 1 1 11.313-11.313l16.973 16.973a8 8 0 0 1 -5.659 13.654z" fill="#ffbc57"/><path d="m328 136h-24a8 8 0 0 1 0-16h24a8 8 0 0 1 0 16z" fill="#ffbc57"/><path d="m464 136h-24a8 8 0 0 1 0-16h24a8 8 0 0 1 0 16z" fill="#ffbc57"/><path d="m423.6 96.4a8 8 0 0 1 -5.657-13.656l16.973-16.973a8 8 0 1 1 11.313 11.313l-16.975 16.975a7.975 7.975 0 0 1 -5.654 2.341z" fill="#ffbc57"/><path d="m85.838 304h48l2.595-16h-48z" fill="#afafaf"/><path d="m70.271 400h48l2.594-16h-48z" fill="#afafaf"/><path d="m341.838 304h48l2.162-13.333v-2.667h-47.567z" fill="#afafaf"/><path d="m326.271 400h48l1.729-10.667v-5.333h-47.135z" fill="#afafaf"/><path d="m150.703 200 1.297-8h-48l-1.297 8z" fill="#afafaf"/><path d="m406.703 200 1.297-8h-48l-1.297 8z" fill="#afafaf"/></svg>