<svg height="454pt" viewBox="-81 0 454 454" width="454pt" xmlns="http://www.w3.org/2000/svg"><path d="m146 370.871094c2.761719 0 5-2.238282 5-5 0-2.761719-2.238281-5-5-5s-5 2.238281-5 5c0 2.761718 2.238281 5 5 5zm105-155.480469c49.636719 56.285156 46.066406 141.695313-8.09375 193.640625-54.164062 51.945312-139.648438 51.945312-193.8125 0-54.160156-51.945312-57.730469-137.355469-8.09375-193.640625 8.75-9.90625 18.847656-18.535156 30-25.628906 45.792969-29.015625 104.207031-29.015625 150 0 11.152344 7.09375 21.25 15.722656 30 25.628906zm0 0" fill="#f8ec7d"/><path d="m251 111v104.390625c-8.75-9.90625-18.847656-18.535156-30-25.628906v-78.761719c0-41.421875-33.578125-75-75-75s-75 33.578125-75 75v78.761719c-11.152344 7.09375-21.25 15.722656-30 25.628906v-104.390625c0-57.988281 47.011719-105 105-105s105 47.011719 105 105zm0 0" fill="#e48e66"/><g fill="#63316d"><path d="m146 0c-61.304688-.0078125-111.007812 49.695312-111 111v102.160156c-22.597656 26.429688-35.0117188 60.066406-35 94.839844 0 80.503906 65.5 146 146 146s146-65.496094 146-146c.011719-34.773438-12.402344-68.410156-35-94.839844v-102.160156c-.070312-61.273438-49.726562-110.9296875-111-111zm-70.007812 40.992188c28.3125-28.316407 70.898437-36.789063 107.894531-21.464844 36.996093 15.328125 61.117187 51.429687 61.113281 91.472656v89.699219c-5.621094-5.183594-11.640625-9.917969-18-14.164063v-75.535156c0-44.734375-36.265625-81-81-81s-81 36.265625-81 81v75.535156c-6.359375 4.246094-12.378906 8.980469-18 14.164063v-89.699219c-.070312-26.269531 10.371094-51.476562 28.992188-70.007812zm70.007812 121.007812c-24.078125-.023438-47.785156 5.925781-69 17.308594v-68.308594c0-38.109375 30.890625-69 69-69s69 30.890625 69 69v68.308594c-21.214844-11.382813-44.921875-17.332032-69-17.308594zm0 280c-73.886719 0-134-60.113281-134-134 .007812-48.839844 26.585938-93.804688 69.363281-117.371094 42.777344-23.5625 94.988281-21.988281 136.269531 4.105469.054688.035156.109376.066406.164063.097656 10.605469 6.75 20.210937 14.949219 28.546875 24.355469.085938.101562.175781.199219.269531.300781 21.53125 24.457031 33.402344 55.925781 33.386719 88.511719 0 73.886719-60.113281 134-134 134zm0 0"/><path d="m166.726562 408.742188c-6.820312 1.390624-13.765624 2.089843-20.726562 2.085937-3.3125 0-6 2.6875-6 6 0 3.316406 2.6875 6 6 6 7.769531.003906 15.519531-.777344 23.132812-2.332031 3.246094-.664063 5.339844-3.832032 4.675782-7.082032-.664063-3.246093-3.835938-5.335937-7.082032-4.671874zm0 0"/><path d="m186.976562 402.339844c-2.023437.816406-3.441406 2.664062-3.707031 4.832031-.269531 2.164063.664063 4.304687 2.429688 5.585937s4.085937 1.503907 6.0625.582032c41.945312-18.230469 69.074219-59.605469 69.066406-105.339844 0-3.3125-2.683594-6-6-6-3.3125 0-6 2.6875-6 6 .007813 40.957031-24.285156 78.015625-61.851563 94.339844zm0 0"/><path d="m126.234375 206.960938c.367187 0 .730469-.035157 1.089844-.101563 6.164062-1.125 12.414062-1.691406 18.675781-1.6875 3.3125 0 6-2.6875 6-6 0-3.316406-2.6875-6-6-6-6.992188-.003906-13.96875.628906-20.847656 1.886719-3.046875.5625-5.164063 3.355468-4.882813 6.441406s2.863281 5.453125 5.964844 5.460938zm0 0"/><path d="m101.300781 202.191406c-42.546875 17.9375-70.1875 59.636719-70.128906 105.808594 0 3.3125 2.683594 6 6 6 3.3125 0 6-2.6875 6-6-.050781-41.347656 24.703125-78.695312 62.804687-94.753906 3.054688-1.292969 4.480469-4.8125 3.191407-7.863282-1.292969-3.054687-4.8125-4.480468-7.863281-3.191406zm0 0"/><path d="m148.542969 239.214844c-9.980469-.746094-19.8125 2.734375-27.101563 9.589844-7.285156 6.820312-11.425781 16.347656-11.441406 26.324218 0 3.316406 2.6875 6 6 6s6-2.683594 6-6c0-6.664062 2.769531-13.027344 7.648438-17.566406 4.875-4.542969 11.421874-6.851562 18.070312-6.375 10.515625.753906 19.308594 8.28125 21.675781 18.554688 2.367188 10.273437-2.25 20.890624-11.378906 26.167968-11.238281 6.679688-18.097656 18.816406-18.015625 31.890625v13.019531c0 3.3125 2.6875 6 6 6s6-2.6875 6-6v-13.019531c-.089844-8.800781 4.492188-16.984375 12.039062-21.511719 13.695313-7.917968 20.613282-23.851562 17.050782-39.269531-3.558594-15.414062-16.769532-26.695312-32.550782-27.804687zm0 0"/><path d="m157 365.871094c0-6.078125-4.925781-11-11-11s-11 4.921875-11 11c0 6.074218 4.925781 11 11 11 6.070312-.007813 10.992188-4.929688 11-11zm-12 0c0-.554688.449219-1 1-1s1 .445312 1 1c0 .550781-.449219 1-1 1s-1-.449219-1-1zm0 0"/></g></svg>